<svg width="70" height="62" viewBox="0 0 70 62" fill="none" xmlns="http://www.w3.org/2000/svg">
<path d="M59.5991 9.44913C53.4356 3.9978 44.92 0.620605 35.528 0.620605C32.5921 0.620605 29.7451 0.951801 27.0295 1.57075C12.3438 4.91803 1.47634 16.7182 1.47634 30.7381C1.47634 36.5705 3.36521 42.017 6.62063 46.6311C3.83398 48.9061 1.21747 51.9215 0.450573 54.0162C-0.396622 56.3405 -0.0898802 58.7821 1.7187 60.3208C3.51867 61.8558 6.33303 62.1048 9.22523 61.2944C12.1181 60.4817 15.3341 58.6442 18.8431 55.5418L41.2893 35.6935L42.6676 36.9068C43.8016 37.915 44.8978 37.1698 44.8048 36.2585L44.5339 33.5642L48.803 29.7889L52.9328 36.1063C54.3111 38.2156 56.4258 36.8427 56.0793 35.4545L53.9852 27.0107C53.8657 26.5973 53.7376 26.1087 53.5059 25.633L56.7412 22.7737C58.3321 21.3603 58.2716 19.8728 57.1874 18.9144C56.1078 17.9596 54.4281 17.905 52.8292 19.3137L49.6018 22.1789C49.0627 21.9739 48.507 21.8571 48.0376 21.7496L38.4928 19.8987C38.2943 19.8606 38.0964 19.8559 37.9079 19.8794C36.5919 20.0502 35.6658 21.6193 37.7532 22.6811L44.8985 26.3355L40.6294 30.1108L37.5846 29.8729C36.5481 29.7907 35.7103 30.7597 36.8516 31.7632L38.2837 33.0334L17.0205 51.8294C8.56523 59.3078 3.70648 53.89 8.53327 49.067C9.63409 50.3278 10.8345 51.5129 12.1405 52.6091C12.9771 52.0583 13.896 51.3648 14.8733 50.5327C8.84601 45.6124 5.07354 38.5784 5.07354 30.7371C5.07354 30.6014 5.08284 30.4646 5.08284 30.3225C6.00904 29.9678 7.2253 29.5791 8.49226 29.4945C8.82954 29.4757 9.16615 29.4804 9.4895 29.5092C13.021 29.8545 12.029 31.3026 15.4065 32.8617C18.7873 34.4249 17.3451 35.1373 16.7277 37.3094C16.1388 39.3854 18.4028 43.7115 20.6178 45.4597L32.6418 34.8249C31.0224 33.2458 29.6945 34.2494 27.9596 32.7678C25.7347 30.8634 22.9309 31.039 20.6549 31.8523C18.3808 32.6709 17.2454 31.4536 16.7515 29.9814C15.9913 27.7206 13.7153 27.1556 10.687 27.1451C8.66471 27.1416 11.5249 24.0087 12.4989 23.2088C13.8653 22.079 17.0104 21.8159 17.5502 22.8242C18.0906 23.8325 19.402 22.8624 19.0819 21.6838C18.7626 20.5087 19.6436 20.1928 20.5532 19.3254C21.4615 18.4592 22.6685 16.714 22.8119 15.2042C22.9547 13.6879 24.9651 14.4108 26.6289 14.893C28.2901 15.371 29.7615 13.5329 28.6985 12.6715C27.8068 11.9504 28.2311 11.9028 29.9832 11.2299C31.7281 10.5575 31.0289 8.83222 29.6313 7.96902C28.65 7.36122 28.0272 5.66594 27.7351 4.68698C30.2203 4.10679 32.8363 3.79555 35.5298 3.79555C39.4736 3.79555 43.2309 4.46265 46.6906 5.66057C46.6408 5.81678 46.5691 6.10275 46.4038 6.84972C45.8581 9.40235 47.4117 10.4641 48.634 9.40235C49.8503 8.33946 52.0373 9.29019 50.8749 10.6784C49.7136 12.0684 47.3944 9.84512 48.5577 12.6234C49.7149 16.0964 45.2133 13.3492 44.9817 16.3847C44.7606 19.3414 48.6612 19.083 50.6099 17.3536C51.8176 16.2866 53.3314 15.5567 54.9998 15.4634C56.6922 15.3659 58.2823 15.956 59.4058 16.9496C60.5259 17.9385 61.2131 19.3473 61.1035 20.8524C60.9979 22.3287 60.1654 23.6635 58.9597 24.7299L57.0594 26.4118L59.1415 34.8591C59.5167 36.3741 58.9224 37.8851 57.7161 38.874C58.0905 40.1929 58.123 41.5782 57.6271 42.8249C56.4479 45.7769 57.4452 47.8856 58.0958 48.8411C52.5266 54.2695 44.485 57.679 35.5273 57.679C32.6856 57.679 29.9423 57.3243 27.3322 56.6848C28.9934 55.3941 33.4737 51.7162 34.2286 48.6368C34.7903 46.3424 37.2793 48.9874 39.4226 43.6336C40.1829 41.7292 40.4478 40.496 40.398 39.6686L21.8339 56.0863C21.2384 56.6113 20.6494 57.0993 20.0593 57.5614C24.7028 59.6673 29.958 60.8605 35.5279 60.8605C54.3163 60.8605 69.5812 47.3553 69.5812 30.7355C69.5812 22.4297 65.7635 14.9041 59.6001 9.44707L59.5991 9.44913Z" fill="black"/>
</svg>
