<svg width="77" height="76" viewBox="0 0 77 76" fill="none" xmlns="http://www.w3.org/2000/svg">
<path d="M61.4493 29.3477C56.7841 29.3399 52.369 31.2122 49.4568 34.4338C48.9504 34.9917 49.0513 35.8074 49.6824 36.255C50.3142 36.7032 51.2363 36.6135 51.7433 36.0556C54.4184 33.1086 58.6188 31.582 62.8655 32.0134C67.113 32.4441 70.8117 34.7731 72.6615 38.1797C74.5113 41.5864 74.2523 45.5936 71.9759 48.7918C69.6995 51.99 65.724 53.9316 61.4493 53.9323C60.6397 53.9323 59.984 54.5124 59.984 55.2281C59.984 55.9437 60.6397 56.5233 61.4493 56.5233C66.9414 56.5233 72.0155 53.9341 74.7614 49.7304C77.5073 45.5266 77.5073 40.347 74.7614 36.1433C72.0155 31.9396 66.9414 29.3498 61.4493 29.3498L61.4493 29.3477Z" fill="white"/>
<path d="M28.5255 53.9287H25.4475C21.7739 53.9221 18.2919 52.4811 15.9338 49.992C13.5756 47.5021 12.5833 44.2183 13.2219 41.0213C13.8612 37.8237 16.0661 35.0399 19.2461 33.4146C22.4268 31.7899 26.2566 31.4904 29.7107 32.5971L29.7325 32.6013H29.7318C29.8695 32.6423 30.0133 32.664 30.1591 32.667C30.1748 32.667 30.1884 32.6736 30.2034 32.6736H30.2402C30.3016 32.6712 30.3629 32.6652 30.4236 32.6568C30.4529 32.6525 30.4822 32.6568 30.5122 32.6483C30.5197 32.6483 30.5272 32.6429 30.5354 32.6417L30.536 32.6411C30.5878 32.6291 30.639 32.6146 30.6894 32.5977C30.7303 32.5845 30.7732 32.5742 30.8127 32.5586C30.8516 32.5429 30.8898 32.5206 30.9293 32.5007C30.9681 32.4809 31.0179 32.4586 31.0595 32.4327C31.1004 32.4068 31.1256 32.3827 31.1569 32.3568H31.1563C31.1951 32.3303 31.2326 32.3013 31.268 32.2706C31.2987 32.2393 31.328 32.2068 31.3546 32.173C31.3852 32.1405 31.4139 32.1068 31.4405 32.0718C31.4629 32.0405 31.4807 32.0055 31.4997 31.9718C31.5195 31.9381 31.5509 31.8857 31.5699 31.8423C31.5699 31.8345 31.5774 31.8284 31.5809 31.8218C31.5924 31.7935 31.5965 31.764 31.6061 31.7357L31.6068 31.7351C31.6231 31.6893 31.6361 31.6423 31.6456 31.5953C31.6531 31.5531 31.6572 31.5104 31.6599 31.4676C31.6599 31.4272 31.6667 31.3863 31.666 31.3447H31.6654C31.6626 31.2941 31.6558 31.2429 31.6456 31.1929C31.6456 31.1652 31.6456 31.1387 31.6361 31.111C30.7241 27.265 32.2031 23.2819 35.5147 20.6614C38.8263 18.0409 43.4684 17.1806 47.692 18.4059C51.9155 19.6306 55.0786 22.7535 55.9904 26.5988C56.1629 27.2898 56.9303 27.7307 57.7147 27.5892C58.4992 27.4476 59.0097 26.7759 58.8618 26.0807C57.8313 21.6469 54.3697 17.9583 49.6302 16.2432C44.8907 14.5282 39.4962 15.0125 35.2434 17.5348C30.9912 20.0571 28.4395 24.2861 28.4381 28.8127C28.4381 29.0838 28.4674 29.3525 28.4858 29.6218C24.2294 28.8609 19.8076 29.7278 16.3139 32.0074C12.8197 34.2869 10.5801 37.7666 10.1486 41.5858C9.71717 45.4052 11.1341 49.2076 14.049 52.0528C16.964 54.898 21.1045 56.5204 25.4473 56.5186H28.5252C29.3342 56.5186 29.9905 55.9384 29.9905 55.2234C29.9905 54.5077 29.3342 53.9276 28.5252 53.9276L28.5255 53.9287Z" fill="white"/>
<path d="M52.6556 46.6526C52.3148 46.0032 51.4431 45.7207 50.7084 46.0213C49.9737 46.3225 49.654 47.093 49.9948 47.7424L60.7306 68.2104C61.0713 68.8598 61.943 69.1423 62.6777 68.8411C63.4124 68.5405 63.7321 67.77 63.3913 67.1206L52.6556 46.6526Z" fill="white"/>
<path d="M41.9201 46.6526C41.58 46.0032 40.7083 45.7213 39.9736 46.0219C39.2396 46.3231 38.9199 47.093 39.2607 47.7424L53.6851 75.2489C54.0258 75.8983 54.8975 76.1803 55.6322 75.8797C56.3669 75.5785 56.6859 74.808 56.3458 74.1586L41.9201 46.6526Z" fill="white"/>
<path d="M31.1846 46.6526C30.8438 46.0032 29.9721 45.7207 29.2374 46.0213C28.5027 46.3225 28.1837 47.093 28.5238 47.7424L39.261 68.2104C39.6017 68.8598 40.4728 69.1417 41.2074 68.8411C41.9415 68.5399 42.2611 67.77 41.9203 67.1206L31.1846 46.6526Z" fill="white"/>
<path d="M11.6049 19.5501C11.611 22.8948 13.6332 25.9822 16.9114 27.652C17.6127 28.0099 18.5097 27.7972 18.9144 27.1773C19.3186 26.5569 19.078 25.7641 18.3767 25.4069C16.2762 24.3442 14.8694 22.4641 14.5858 20.3394C14.3023 18.2154 15.1747 16.0972 16.9378 14.6315C18.7016 13.1664 21.1463 12.5267 23.5283 12.9073C25.9096 13.288 27.9461 14.6447 29.0168 16.5634C29.376 17.2049 30.2552 17.4676 30.9811 17.1501C31.33 16.9977 31.5958 16.729 31.7199 16.4031C31.8446 16.0778 31.818 15.7218 31.6449 15.4133C30.2266 12.8753 27.5815 11.0428 24.4538 10.4313C21.3262 9.81982 18.0533 10.4951 15.5555 12.268C13.0577 14.0403 11.6045 16.7193 11.6045 19.5501L11.6049 19.5501Z" fill="white"/>
<path d="M23.6367 6.2663V1.2952C23.6367 0.579525 22.9803 0 22.1713 0C21.3616 0 20.7053 0.579525 20.7053 1.2952V6.2663C20.7053 6.98137 21.3616 7.5615 22.1713 7.5615C22.9803 7.5615 23.6367 6.98137 23.6367 6.2663Z" fill="white"/>
<path d="M8.60187 5.72653C8.02731 5.23556 7.11267 5.2428 6.54775 5.7422C5.98274 6.24161 5.97456 7.05005 6.53003 7.55782L10.5069 11.0729C11.0794 11.579 12.007 11.579 12.5795 11.0729C13.152 10.5663 13.1513 9.74641 12.5788 9.24035L8.60187 5.72653Z" fill="white"/>
<path d="M8.60552 19.5501C8.60552 18.8351 7.9492 18.2549 7.1402 18.2549H1.51611C0.706429 18.2549 0.0507812 18.8351 0.0507812 19.5501C0.0507812 20.2658 0.706429 20.8459 1.51611 20.8459H7.1402C7.9492 20.8459 8.60552 20.2658 8.60552 19.5501Z" fill="white"/>
<path d="M12.5784 28.0291C12.0059 27.5237 11.0783 27.5237 10.5065 28.0291L6.52962 31.5442C6.24678 31.7858 6.08524 32.1171 6.08184 32.4647C6.07843 32.8123 6.23315 33.1461 6.51121 33.3919C6.78928 33.6376 7.16754 33.7744 7.56011 33.7714C7.95337 33.7684 8.3289 33.6256 8.60153 33.3762L12.5784 29.8611C13.1509 29.355 13.1509 28.5351 12.5784 28.0291V28.0291Z" fill="white"/>
<path d="M32.7984 11.4521C33.1876 11.4521 33.5604 11.3153 33.835 11.0726L37.8105 7.55745C38.3659 7.04961 38.3584 6.24116 37.7928 5.74183C37.2278 5.24242 36.3138 5.23519 35.7386 5.72617L31.7632 9.24005C31.3434 9.61054 31.2179 10.1678 31.4449 10.6521C31.6712 11.1359 32.2055 11.4515 32.7985 11.4521L32.7984 11.4521Z" fill="white"/>
</svg>
