<svg width="70" height="62" viewBox="0 0 70 62" fill="none" xmlns="http://www.w3.org/2000/svg">
<path d="M59.9755 8.95464C53.8121 3.42544 45.2965 0 35.9045 0C32.9686 0 30.1216 0.335926 27.406 0.963714C12.7203 4.35881 1.8528 16.3275 1.8528 30.5477C1.8528 36.4635 3.74167 41.9878 6.9971 46.6678C4.21045 48.9753 1.59394 52.0337 0.827038 54.1584C-0.0201576 56.5158 0.286585 58.9924 2.09516 60.553C3.89514 62.11 6.70949 62.3625 9.60169 61.5406C12.4946 60.7162 15.7106 58.8525 19.2196 55.7058L41.6657 35.574L43.0441 36.8045C44.1781 37.8272 45.2743 37.0714 45.1813 36.147L44.9104 33.4142L49.1795 29.585L53.3092 35.9927C54.6876 38.1321 56.8023 36.7396 56.4557 35.3315L54.3617 26.7671C54.2422 26.3478 54.1141 25.8522 53.8823 25.3697L57.1177 22.4696C58.7085 21.0359 58.6481 19.5272 57.5639 18.5551C56.4843 17.5867 54.8046 17.5313 53.2057 18.9602L49.9783 21.8663C49.4392 21.6584 48.8835 21.5399 48.4141 21.4309L38.8693 19.5535C38.6707 19.5148 38.4729 19.51 38.2843 19.5339C36.9684 19.7072 36.0423 21.2987 38.1296 22.3756L45.275 26.0822L41.0059 29.9115L37.961 29.6702C36.9246 29.5868 36.0868 30.5696 37.228 31.5875L38.6602 32.8758L17.397 51.9403C8.94169 59.5255 4.08294 54.0303 8.90973 49.1385C10.0106 50.4173 11.211 51.6193 12.517 52.7312C13.3536 52.1725 14.2724 51.4691 15.2498 50.6252C9.22248 45.6345 5.45001 38.5 5.45001 30.5467C5.45001 30.4091 5.4593 30.2703 5.4593 30.1262C6.3855 29.7664 7.60177 29.3722 8.86872 29.2864C9.20601 29.2673 9.54261 29.2721 9.86596 29.3013C13.3974 29.6515 12.4055 31.1203 15.7829 32.7017C19.1638 34.2872 17.7216 35.0098 17.1042 37.213C16.5153 39.3185 18.7793 43.7064 20.9943 45.4796L33.0182 34.6929C31.3989 33.0913 30.071 34.1092 28.3361 32.6064C26.1112 30.6748 23.3074 30.8529 21.0313 31.6778C18.7573 32.5081 17.6219 31.2734 17.128 29.7802C16.3678 27.4871 14.0918 26.9141 11.0635 26.9034C9.04117 26.8998 11.9014 23.7222 12.8753 22.9109C14.2417 21.7649 17.3868 21.4981 17.9267 22.5208C18.4671 23.5434 19.7785 22.5595 19.4584 21.3641C19.139 20.1722 20.0201 19.8518 20.9297 18.972C21.8379 18.0934 23.0449 16.3233 23.1884 14.7919C23.3311 13.254 25.3416 13.9872 27.0054 14.4762C28.6666 14.9611 30.1379 13.0968 29.0749 12.2231C28.1833 11.4916 28.6075 11.4434 30.3597 10.7608C32.1046 10.0788 31.4054 8.32892 30.0078 7.45339C29.0265 6.83691 28.4037 5.11741 28.1116 4.12446C30.5967 3.53598 33.2127 3.22031 35.9062 3.22031C39.85 3.22031 43.6074 3.89693 47.0671 5.11196C47.0173 5.2704 46.9456 5.56046 46.7803 6.3181C46.2345 8.9072 47.7881 9.98416 49.0104 8.9072C50.2268 7.82913 52.4137 8.79344 51.2513 10.2015C50.0901 11.6113 47.7709 9.3563 48.9341 12.1743C50.0914 15.6968 45.5898 12.9104 45.3581 15.9893C45.137 18.9883 49.0376 18.7261 50.9863 16.9721C52.1941 15.8898 53.7079 15.1495 55.3763 15.0548C57.0687 14.9559 58.6588 15.5545 59.7823 16.5623C60.9023 17.5653 61.5895 18.9942 61.48 20.5208C61.3744 22.0182 60.5418 23.372 59.3361 24.4537L57.4359 26.1597L59.518 34.7276C59.8931 36.2643 59.2989 37.7969 58.0925 38.7999C58.467 40.1376 58.4995 41.5427 58.0036 42.8072C56.8244 45.8014 57.8216 47.9402 58.4723 48.9094C52.9031 54.4153 44.8615 57.8735 35.9038 57.8735C33.062 57.8735 30.3187 57.5137 27.7087 56.8651C29.3699 55.5559 33.8502 51.8255 34.605 48.7021C35.1667 46.375 37.6558 49.0577 39.7991 43.6275C40.5593 41.6959 40.8242 40.4451 40.7745 39.6058L22.2104 56.2581C21.6148 56.7906 21.0259 57.2855 20.4357 57.7543C25.0793 59.8902 30.3344 61.1004 35.9043 61.1004C54.6927 61.1004 69.9577 47.4023 69.9577 30.5451C69.9577 22.1207 66.14 14.4876 59.9766 8.95256L59.9755 8.95464Z" fill="white"/>
<path d="M59.9755 8.95464C53.8121 3.42544 45.2965 0 35.9045 0C32.9686 0 30.1216 0.335926 27.406 0.963714C12.7203 4.35881 1.8528 16.3275 1.8528 30.5477C1.8528 36.4635 3.74167 41.9878 6.9971 46.6678C4.21045 48.9753 1.59394 52.0337 0.827038 54.1584C-0.0201576 56.5158 0.286585 58.9924 2.09516 60.553C3.89514 62.11 6.70949 62.3625 9.60169 61.5406C12.4946 60.7162 15.7106 58.8525 19.2196 55.7058L41.6657 35.574L43.0441 36.8045C44.1781 37.8272 45.2743 37.0714 45.1813 36.147L44.9104 33.4142L49.1795 29.585L53.3093 35.9927C54.6876 38.1321 56.8023 36.7396 56.4557 35.3315L54.3617 26.7671C54.2422 26.3478 54.1141 25.8522 53.8823 25.3697L57.1177 22.4696C58.7085 21.0359 58.6481 19.5272 57.5639 18.5551C56.4843 17.5867 54.8046 17.5313 53.2057 18.9602L49.9783 21.8663C49.4392 21.6584 48.8835 21.5399 48.4141 21.4309L38.8693 19.5535C38.6707 19.5148 38.4729 19.51 38.2843 19.5339C36.9684 19.7072 36.0423 21.2987 38.1296 22.3756L45.275 26.0822L41.0059 29.9115L37.961 29.6702C36.9246 29.5868 36.0868 30.5696 37.228 31.5875L38.6602 32.8758L17.397 51.9403C8.94169 59.5255 4.08294 54.0303 8.90973 49.1385C10.0106 50.4173 11.211 51.6193 12.517 52.7312C13.3536 52.1725 14.2724 51.4691 15.2498 50.6252C9.22248 45.6345 5.45001 38.5 5.45001 30.5467C5.45001 30.4091 5.4593 30.2703 5.4593 30.1262C6.3855 29.7664 7.60177 29.3722 8.86872 29.2864C9.20601 29.2673 9.54261 29.2721 9.86596 29.3013C13.3974 29.6515 12.4055 31.1203 15.7829 32.7017C19.1638 34.2872 17.7216 35.0098 17.1042 37.213C16.5153 39.3185 18.7793 43.7064 20.9943 45.4796L33.0182 34.6929C31.3989 33.0913 30.071 34.1092 28.3361 32.6064C26.1112 30.6748 23.3074 30.8529 21.0313 31.6778C18.7573 32.5081 17.6219 31.2734 17.128 29.7802C16.3678 27.4871 14.0918 26.9141 11.0635 26.9034C9.04117 26.8998 11.9014 23.7222 12.8753 22.9109C14.2417 21.7649 17.3868 21.4981 17.9267 22.5208C18.4671 23.5434 19.7785 22.5595 19.4584 21.3641C19.139 20.1722 20.0201 19.8518 20.9297 18.972C21.8379 18.0934 23.0449 16.3233 23.1884 14.7919C23.3311 13.254 25.3416 13.9872 27.0054 14.4762C28.6666 14.9611 30.1379 13.0968 29.0749 12.2231C28.1833 11.4916 28.6075 11.4434 30.3597 10.7608C32.1046 10.0788 31.4054 8.32892 30.0078 7.45339C29.0265 6.83691 28.4037 5.11741 28.1116 4.12446C30.5967 3.53598 33.2127 3.22031 35.9062 3.22031C39.85 3.22031 43.6074 3.89693 47.0671 5.11196C47.0173 5.2704 46.9456 5.56046 46.7803 6.3181C46.2345 8.9072 47.7881 9.98416 49.0104 8.9072C50.2268 7.82913 52.4137 8.79344 51.2513 10.2015C50.0901 11.6113 47.7709 9.3563 48.9341 12.1743C50.0914 15.6968 45.5898 12.9104 45.3581 15.9893C45.137 18.9883 49.0376 18.7261 50.9863 16.9721C52.1941 15.8898 53.7079 15.1495 55.3763 15.0548C57.0687 14.9559 58.6588 15.5545 59.7823 16.5623C60.9023 17.5653 61.5895 18.9942 61.48 20.5208C61.3744 22.0182 60.5418 23.372 59.3361 24.4537L57.4359 26.1597L59.518 34.7276C59.8931 36.2643 59.2989 37.7969 58.0925 38.7999C58.467 40.1376 58.4995 41.5427 58.0036 42.8072C56.8244 45.8014 57.8216 47.9402 58.4723 48.9094C52.9031 54.4153 44.8615 57.8735 35.9038 57.8735C33.062 57.8735 30.3187 57.5137 27.7087 56.8651C29.3699 55.5559 33.8502 51.8255 34.605 48.7021C35.1667 46.375 37.6558 49.0577 39.7991 43.6275C40.5593 41.6959 40.8242 40.4451 40.7745 39.6058L22.2104 56.2581C21.6148 56.7906 21.0259 57.2855 20.4357 57.7543C25.0793 59.8902 30.3344 61.1004 35.9043 61.1004C54.6927 61.1004 69.9577 47.4023 69.9577 30.5451C69.9577 22.1207 66.14 14.4876 59.9766 8.95256L59.9755 8.95464Z" fill="white"/>
</svg>
